<svg width="514" height="40" viewBox="0 0 514 40" fill="none" xmlns="http://www.w3.org/2000/svg">
<mask id="mask0_457_55" style="mask-type:luminance" maskUnits="userSpaceOnUse" x="5" y="5" width="503" height="29">
<path d="M5.53125 5.33679H507.802V33.9653H5.53125V5.33679Z" fill="white"/>
</mask>
<g mask="url(#mask0_457_55)">
<path d="M230.34 17.3923C230.295 17.3923 230.25 17.3923 230.205 17.3923C230.205 17.5278 230.205 17.6632 230.205 17.7951C230.25 17.7951 230.295 17.7951 230.34 17.7951C230.34 17.6632 230.34 17.5278 230.34 17.3923ZM156.91 17.7257C156.896 17.6111 156.885 17.493 156.872 17.3785C156.649 17.4305 156.427 17.4826 156.205 17.5347C156.215 17.6007 156.226 17.6632 156.236 17.7257C156.462 17.7257 156.688 17.7257 156.91 17.7257ZM229.181 19.684C228.413 19.5 227.625 19.2639 226.722 19.5729C227.194 19.809 227.521 19.9757 227.743 20.0868C228.253 19.9444 228.715 19.816 229.181 19.684ZM155.292 20.5451C155.285 20.434 155.281 20.3229 155.274 20.2118C154.285 20.2118 153.295 20.2083 152.306 20.2222C152.257 20.2257 152.215 20.3958 152.139 20.5451C153.219 20.5451 154.253 20.5451 155.292 20.5451ZM252.688 19.3507C253.375 20.1389 253.774 21.1458 254.795 21.3923C255.84 21.0694 256.781 20.7812 257.844 20.4548C257.58 19.7534 257.365 19.1771 257.128 18.5486C255.656 18.7882 254.094 18.1632 252.688 19.3507ZM219.024 23.3264C218.594 23.2257 218.128 22.9653 217.76 23.059C216.358 23.4236 216.021 24.7396 215.413 25.9028C215.719 26.4062 216.045 26.9444 216.434 27.5868C217.34 27.4028 218.205 27.2291 218.962 27.0764C219.167 26.5937 219.302 26.2743 219.403 26.0416C218.885 25.2326 219.215 24.4166 219.024 23.3264ZM332.958 16.9166C331.323 16.3403 329.91 16.7257 328.642 16.5764C328.097 17.0833 327.608 17.5382 327.118 17.993C327.326 18.2014 327.517 18.3889 327.729 18.6007C328.521 18.6007 329.479 18.875 330.101 18.5382C331.097 18 332.052 18.2743 333.014 18.2222C333.993 18.1701 334.858 17.6944 335.889 17.7569C337.958 17.8854 340.038 17.7951 342.313 17.7951C341.965 17.4236 341.788 17.243 341.628 17.0694C340.955 16.7847 340.125 17.3368 339.556 16.6354C338.844 17.4097 338.167 16.7257 337.576 16.5486C337.292 16.7604 337.094 16.9097 336.872 17.0764C336.135 16.309 335.438 16.5486 334.795 17.0729C334.108 16.3194 333.476 16.5416 332.958 16.9166ZM325.236 18.2153C322.337 18.1215 319.635 18.2396 316.931 17.8507C313.91 17.4166 310.795 18.2187 307.767 17.3993C307.58 17.3472 307.344 17.3368 307.163 17.4028C305.382 18.0416 303.462 17.8368 301.84 18.4861C301.587 18.5729 301.333 18.6632 301.142 18.7291C301.396 19.0312 301.569 19.2361 301.726 19.4166C302.583 19.4166 303.392 19.4166 304.191 19.4166C304.729 19.9514 305.253 20.4722 305.875 21.0868C306.552 20.941 307.288 20.6736 308.038 20.6354C309.59 20.5625 311.243 20.934 312.681 20.5278C314.205 20.0937 315.74 20.3333 317.264 19.8889C318.931 19.4028 320.792 19.6041 322.552 19.3785C323.434 19.2673 324.424 19.1944 325.236 18.2153ZM239.639 17.2153C240.938 17.5034 242.337 17.1458 243.656 17.7743C243.899 17.8889 244.392 17.8298 244.583 17.6528C245.066 17.2083 245.604 17.493 246.278 17.3541C246.694 16.7326 247.188 16.0034 247.726 15.2048C246.767 14.4653 245.906 13.875 245.135 13.184C244.031 12.1944 242.74 11.5555 241.361 11.0833C239.497 10.4479 238.726 10.4514 236.903 10.9514C235.764 11.2604 235.052 12.1562 234.948 13.4375C234.92 13.7639 234.941 14.0903 234.941 14.2187C235.451 14.9583 235.847 15.5347 236.139 15.9583C237.413 16.4166 238.524 16.8159 239.639 17.2153ZM246.142 18.8889C244.288 19.0625 242.458 19.2291 240.628 19.4166C240.458 19.434 240.313 19.6493 240.139 19.6805C238.33 20.0243 236.951 21.0382 235.906 22.2986C235.736 22.8298 235.601 23.243 235.458 23.6909C236.285 24.2708 235.135 25.684 236.517 26.2535C236.809 26.2535 237.424 26.0625 237.726 26.2847C238.962 27.1979 240.087 26.0868 241.26 26.2291C242.892 25.0347 245.01 24.7291 246.566 23.3889C247.177 22.8611 248.132 22.6944 248.358 21.6979C247.649 20.7986 246.927 19.8854 246.142 18.8889ZM247.556 12.0694C248.278 12.6041 249.056 13.184 249.899 13.8125C251 13.6666 252.156 13.5069 253.316 13.368C254.545 13.2222 255.774 12.9896 257.003 12.9965C258.142 13 259.278 13.2708 260.177 13.3923C261.271 12.5903 262.319 12.125 262.517 11.0625C262.233 9.79512 261.708 8.78817 260.628 8.13192C259.306 8.13192 257.951 8.09373 256.601 8.14581C255.771 8.17706 254.965 8.19789 254.104 8.44095C253.052 8.73609 251.743 8.82637 250.722 8.15276C249.021 8.94095 247.299 9.67012 247.556 12.0694ZM268.132 17.7951C269.865 17.0347 271.278 16.3715 272.722 15.7916C274.042 15.2639 274.826 14.4375 274.757 12.9444C274.747 12.743 274.983 12.5312 275.052 12.4132C274.75 11.6076 274.469 10.8576 274.226 10.2083C272.795 9.44442 271.392 9.85067 270.16 9.73956C268.705 10.743 267.024 10.9583 265.67 11.9896C264.351 12.9896 263.08 13.9618 262.142 15.316C263.194 17.3403 263.194 17.3403 265.622 17.4132C266.41 18.25 267.42 17.5451 268.132 17.7951ZM258.017 22.5903C255.465 23.5625 253.014 22.8333 250.427 22.5659C249.708 23.6076 248.986 24.6562 248.378 25.5347C248.378 26.5521 248.378 27.3437 248.378 27.875C248.802 28.4097 249.087 28.7743 249.358 29.1215C250.146 28.816 250.757 29.4791 251.569 29.1319C252.253 28.8403 253.167 29.125 253.972 29.0555C254.733 28.993 255.486 28.6805 256.24 28.6979C257.333 28.7222 258.42 28.941 259.385 29.0625C260.09 28.4132 260.729 27.8229 261.319 27.2778C261.319 26.5382 261.319 25.8715 261.319 25.2153C260.288 24.2916 259.486 23.1146 258.017 22.5903ZM275.146 24.8298C275.146 24.0382 275.146 23.2361 275.146 22.5833C274.691 21.9653 274.264 21.4722 273.938 20.9201C273.497 20.1805 272.785 19.9305 272.028 19.8229C270.743 19.6389 269.441 19.5625 268.156 19.3889C267.875 19.3507 267.625 19.0868 267.462 18.9861C266.111 19.7847 264.726 19.1528 263.472 19.5C262.889 20.2673 262.309 21.0312 261.806 21.6909C261.806 22.1875 261.806 22.5729 261.806 22.9791C262.552 23.4097 263.25 23.8437 263.972 24.2257C264.743 24.6284 265.524 25.0312 266.333 25.3507C267.087 25.6458 267.875 25.9653 268.667 26.0312C269.472 26.0972 270.253 26.3472 271.083 26.2708C271.955 26.1909 272.837 26.2535 273.698 26.2535C274.184 25.7743 274.66 25.3055 275.146 24.8298ZM172.962 19.4826C173.167 19.5555 173.517 19.7812 173.872 19.7916C175.358 19.8333 176.851 19.8541 178.337 19.7986C179.858 19.7396 181.288 20.3194 182.837 20.2604C184.733 20.1909 186.646 20.4791 188.549 20.618C188.677 20.625 188.816 20.6319 188.924 20.6909C190.611 21.618 192.545 21.3923 194.347 21.7569C195.931 22.0764 197.566 22.4861 199.243 22.2465C199.517 22.2048 199.833 22.4201 200.125 22.5347C201.149 22.9305 201.938 22.1146 202.868 22.125C202.868 21.743 202.868 21.4757 202.868 21.1805C204.073 19.9271 206.16 20.5972 207.365 19.1597C206.878 18.8472 206.403 18.5382 205.976 18.2639C205.667 18.3819 205.271 18.6666 205.115 18.5729C204.253 18.0382 203.194 18.441 202.337 17.9097C202.101 17.7639 201.559 17.7187 201.42 17.868C200.903 18.4305 200.285 18.1528 199.715 18.191C197.271 18.3541 194.788 17.8403 192.375 18.6007C189.302 18.2986 186.285 19.1875 183.212 19.0173C181.861 18.941 180.507 19.0035 179.042 19.0035C178.653 18.5139 178.222 17.9687 177.667 17.2639C177.149 17.191 176.458 17.0764 175.767 16.993C173.299 16.6944 170.885 17.4132 168.431 17.4062C167.465 17.4062 166.493 17.2291 165.528 17.743C165.125 17.9583 164.424 17.8055 163.816 17.5972C162.788 17.2465 161.632 17.0625 160.628 17.9132C161.132 18.5139 161.323 19.0729 160.444 19.7534C161.049 19.9305 161.722 20.3368 161.962 20.1632C162.653 19.6528 163.365 19.8298 164.063 19.8194C166.431 19.7916 168.799 19.8298 171.163 19.7951C171.722 19.7882 172.281 19.6076 172.962 19.4826ZM62.9583 20.3298C62.1528 20.4409 61.5278 20.6007 60.9028 20.6041C56.5694 20.625 52.2396 20.6041 47.9097 20.625C47.2847 20.6284 46.6597 20.7916 45.8438 20.9062C45.8229 20.8958 45.6146 20.7534 45.559 20.7187C44.7917 20.8333 44.1667 21 43.5417 21.0034C40.2917 21.0312 37.0417 20.9896 33.7951 21.0347C32.7639 21.0486 31.7569 20.9618 30.684 21.3368C29.875 21.6215 28.7951 21.0347 27.8368 21.0521C26.9549 21.0659 26.1076 21.625 25.1771 21.3819C25.0104 21.3368 24.8819 21.1319 24.7743 21.0347C24.2431 21.1736 23.7569 21.3819 23.2674 21.4028C22.0486 21.4548 20.7882 21.618 19.6215 21.3784C17.441 20.9271 15.2431 21.2187 13.0903 20.9444C12.0625 20.8159 11.1701 20.6007 10.1528 20.9791C9.73958 21.1319 9.09722 21.2326 8.64583 20.7465C8.60069 20.6979 8.26389 20.9166 7.87847 21.0972C7.13542 20.5555 6.3125 19.9514 5.53125 19.3785C5.53125 18.8576 5.53125 18.4618 5.53125 18.0278C5.86458 17.8298 6.25 17.4062 6.60417 17.4305C7.90972 17.5173 9.19445 17.2882 10.5451 17.6562C11.8958 18.0243 13.4167 17.941 14.8785 17.6041C15.7465 17.4028 16.7396 17.3229 17.5833 17.5416C19.2361 17.9722 20.8542 17.7882 22.4931 17.6528C22.5937 17.6458 22.684 17.493 22.7396 17.441C23.6076 17.9722 24.5347 18 25.3715 17.5937C26.5868 17.0034 27.6667 17.8611 28.7708 17.7465C29.8403 17.6354 30.8403 17.118 31.9688 17.618C32.3889 17.8021 33.0382 17.8194 33.441 17.625C34.1667 17.2708 34.8333 17.2882 35.5104 17.5625C36.5486 17.9826 37.5312 17.9653 38.4549 17.3229C38.6632 17.4896 38.816 17.6111 38.9757 17.7396C40.5799 17.2465 45.4931 17.1666 47.1215 17.7951C47.2708 17.6597 47.4167 17.5243 47.559 17.3889C49.1458 18.1041 50.7083 17.1736 52.309 17.3507C53.9826 17.5382 55.691 17.4062 57.3819 17.3854C57.8889 17.3784 58.441 17.5798 58.8819 17.0555C58.9965 16.9201 59.4931 16.8889 59.6319 17.0104C60.3958 17.691 61.2917 17.3611 62.1215 17.375C64.7604 17.4201 67.3993 17.4236 70.0382 17.3785C71.1389 17.3576 72.2882 17.6875 73.3333 17.0069C73.5243 16.8854 73.934 16.8854 74.1215 17.0069C75.1701 17.6875 76.3194 17.3646 77.4167 17.3785C80.9375 17.4201 84.4549 17.4028 87.9757 17.3889C90.0243 17.3785 92.0347 16.7326 94.1007 16.993C94.5972 17.0555 95.0868 17.1562 95.5903 17.2396C96.2431 17.1597 96.9306 17.0034 97.6215 17C104.524 16.9826 111.427 16.9896 118.33 16.9896C121.986 16.9896 125.642 16.9514 129.295 17.0104C130.795 17.0312 132.295 17.3125 133.799 17.3785C135.351 17.4444 136.965 17.1458 138.451 17.4653C139.84 17.7639 141.194 17.6805 142.559 17.8194C143.247 17.8854 143.882 18.3889 144.625 18.191C144.924 18.1111 145.201 17.9548 145.424 17.8646C146.017 17.9791 146.677 18.3333 147.115 18.1528C148.476 17.5833 149.858 17.8611 151.229 17.8055C152.431 17.7569 153.639 17.7951 154.983 17.7951C154.326 17.1111 153.67 16.9097 152.906 16.9896C152.111 17.0729 151.326 16.9618 150.649 16.5729C149.917 16.1458 149.146 16.25 148.372 16.1701C147.354 16.0625 146.344 15.8368 145.271 15.6528C145.083 15.4653 144.844 15.2291 144.604 14.993C142.67 14.9722 141.757 14.7361 140.566 13.8541C141.885 13.8472 143.017 13.4271 144.128 14.1007C144.278 14.191 144.517 14.191 144.705 14.1666C146.844 13.8819 148.958 14.3576 151.024 14.6493C154.84 15.1875 158.639 14.875 162.441 14.9583C166.229 15.0416 170.021 14.993 173.809 14.9618C174.503 14.9548 175.295 15.2951 175.885 14.5833C175.941 14.5173 176.167 14.5278 176.278 14.5798C177.795 15.316 179.344 14.618 180.806 14.4757C182.653 14.2916 184.49 14.2326 186.333 14.1528C186.823 14.1319 187.313 13.9305 187.788 13.7639C189.458 13.1736 191.191 13.3472 192.899 13.3854C194.288 13.4166 195.569 13.066 196.878 12.6944C197.625 12.4861 198.469 12.5416 199.264 12.5798C199.753 12.6076 200.233 12.9236 200.719 12.934C201.146 12.9479 201.531 12.5 202.031 12.9375C202.222 13.1041 202.806 13.1041 203.003 12.9409C204.017 12.0937 204.969 12.6979 205.934 12.9653C207.326 13.3576 208.701 13.8125 210.104 14.1597C211.354 14.4687 211.944 15.441 212.576 16.4479C213.726 16.9236 214.878 17.3958 215.99 17.8507C216.205 17.6562 216.351 17.5208 216.493 17.3889C218.226 18.1528 220.031 17.6389 221.889 17.8194C220.917 17.0208 220.899 17.0972 220.184 16.9757C218.229 16.6389 216.365 16.118 215.274 14.2187C215.017 13.7708 214.517 13.4653 214.253 13.0208C214.042 12.6666 214.014 12.2014 213.868 11.6389C214.142 10.9791 214.354 10.0937 214.84 9.39581C215.365 8.63539 216.146 8.04512 216.872 7.32637C217.622 7.32637 218.427 7.36109 219.229 7.31942C220.663 7.24303 221.823 7.58678 222.333 9.52776C222.333 9.76039 222.333 10.4271 222.333 11.2083C222.042 11.4375 221.67 11.7291 221.156 12.1319C221.128 12.1319 220.865 12.1319 220.549 12.1319C219.458 11.6007 219.844 10.1632 219.01 9.43401C217.076 9.35414 216.806 9.52776 215.806 11.5416C215.917 11.7569 216.104 12.0139 216.194 12.3055C216.285 12.6076 216.285 12.934 216.316 13.1875C217.299 14.4722 219.097 13.8507 220.118 14.9757C221.792 14.9757 223.479 14.9479 225.17 14.993C225.799 15.0069 226.465 14.7535 227.069 15.3403C227.278 15.5416 227.941 15.2986 228.389 15.2257C228.698 15.1736 229.111 14.8923 229.281 15.0035C230.267 15.6666 231.333 15.2465 232.229 15.3819C232.531 15.125 232.736 14.9479 232.92 14.7916C232.736 13.7396 232.559 12.7291 232.413 11.9028C232.865 11.0347 233.208 10.3715 233.615 9.58678C234.611 9.16664 235.708 8.70484 237.063 8.13192C237.299 8.13192 237.847 8.19095 238.375 8.12151C240.493 7.83678 242.323 8.52081 244.163 9.78817C244.653 9.07984 245.135 8.37498 245.74 7.49303C246.285 7.46873 246.569 6.57289 247.451 6.48262C248.507 6.37498 249.521 5.82289 250.573 5.74651C253.625 5.52428 256.684 5.38887 259.743 5.33678C261.181 5.31248 262.479 5.85414 263.559 6.88539C264.104 7.40623 264.778 7.79859 265.309 8.18748C266.375 7.80206 267.42 7.94095 268.247 7.32637C269.194 6.62498 270.292 6.98609 271.326 6.934C272.267 6.88539 273.215 6.92359 274.163 6.92359C274.944 7.49998 275.715 8.06595 276.684 8.77776C276.868 9.13539 277.184 9.73956 277.566 10.4791C277.566 11.5243 277.566 12.7257 277.566 13.9896C277.753 14.1354 277.969 14.2986 278.326 14.5729C279.549 14.3437 281.024 15 282.413 14.1909C282.663 14.0451 283.184 14.0347 283.396 14.1944C284.378 14.941 285.545 14.7153 286.476 14.4896C287.417 14.2639 288.427 14.125 289.361 13.6389C290.583 13.0034 291.031 12.1423 290.983 10.8784C290.972 10.684 290.962 10.4896 290.955 10.3229C290.524 9.71873 290.115 9.14581 289.708 8.57289C289.243 8.57289 288.851 8.57289 288.257 8.57289C287.885 9.05901 287.424 9.66317 286.913 10.3264C286.913 10.868 286.913 11.4514 286.913 11.9757C286.653 12.2187 286.462 12.3993 286.188 12.6562C285.681 12.4757 285.149 12.2847 284.51 12.0555C284.375 11.5069 284.163 10.9097 284.094 10.2951C284.021 9.63887 284.08 8.96526 284.08 8.36803C284.816 7.44442 285.507 6.57637 286.139 5.7847C288 5.51387 289.549 5.87845 291.09 6.77081C292.656 7.68053 293.563 8.79859 293.424 10.6389C293.392 11.0416 293.417 11.4444 293.417 11.8993C292.868 12.8333 292.295 13.8055 291.639 14.9166C290.306 15.4965 288.816 16.1423 287.316 16.7916C289.302 17.5347 291.212 16.4062 293.233 16.6041C293.743 15.8055 294.628 15.3541 295.118 14.4062C295.493 13.684 296.514 13.2951 297.476 12.5903C297.49 12.5868 297.872 12.6528 298.122 12.5C299.222 11.8264 300.417 11.7291 301.67 11.7361C302.497 11.743 303.323 11.5694 304.278 11.4653C304.295 11.4791 304.441 11.6146 304.583 11.7465C304.726 11.618 304.892 11.3541 305.021 11.3715C306.517 11.5694 308.069 10.9132 309.542 11.7257C309.903 11.9236 310.476 11.7951 310.944 11.75C314.09 11.4514 317.181 12.3541 320.319 12.1562C321.844 12.809 323.503 12.2673 325.014 12.6146C327.201 13.1146 329.378 12.8403 331.556 12.9791C332.049 13.0104 332.521 13.2465 333.014 13.3611C333.507 13.4791 334.038 13.2048 334.542 13.6215C334.792 13.8298 335.41 13.9028 335.667 13.7361C336.601 13.1423 337.597 13.4444 338.566 13.368C340.736 13.1944 342.896 12.7534 345.094 12.9618C348.122 12.1284 351.215 12.7639 354.264 12.559C356.038 12.4375 357.813 12.3264 359.576 12.1389C360.122 12.0798 360.646 11.7986 361.177 11.6041C361.351 11.5416 361.514 11.3646 361.677 11.3646C363.51 11.375 365.257 10.9132 367.035 10.5833C368.174 10.3715 369.368 10.5833 370.531 10.1944C370.972 10.0451 371.601 10.4444 372.163 10.6041C372.181 10.9305 372.194 11.1875 372.212 11.5278C372.083 11.5972 371.924 11.6632 371.781 11.7569C370.774 12.4305 369.646 12.4826 368.469 12.6076C366.323 12.8333 364.177 13.1979 362.115 13.8923C361.292 14.1736 360.444 14.4097 359.469 14.7083C359.795 14.9548 360.003 15.1146 360.351 15.3785C362.927 15.3785 365.729 15.6493 368.448 15.2986C370.781 14.9965 373.128 15.3229 375.389 14.9166C378.458 14.3646 381.514 14.7465 384.566 14.566C384.941 14.5416 385.306 14.3889 385.674 14.2986C385.854 14.2534 386.104 14.1146 386.219 14.1875C387.628 15.0798 389.302 14.1458 390.792 14.9271C391.719 15.4132 392.941 14.9548 393.813 14.5139C394.816 14.0034 395.799 14.0937 396.715 14.2187C398.823 14.5034 398.792 14.4514 400.854 14.2187C402.726 14.0069 404.635 14.1701 406.528 14.2083C406.726 14.2153 406.917 14.5034 407.111 14.6597C407.406 14.4548 407.618 14.3125 407.747 14.2257C410.101 14.9201 412.448 14.4791 414.764 14.559C417.063 14.6354 419.365 14.5937 421.663 14.5625C422.295 14.5521 422.934 14.7257 423.573 14.243C423.92 13.9826 424.632 14.0868 425.149 14.1875C427.767 14.7048 429.903 14.6041 432.535 14.2153C434.122 13.9826 435.774 14.1736 437.396 14.2083C437.542 14.2118 437.684 14.4548 437.858 14.6111C438.951 14.0833 440.059 13.8333 440.99 14.4583C441.774 14.3472 442.399 14.1875 443.024 14.184C446.545 14.1597 450.063 14.1805 453.583 14.1632C454.007 14.1597 454.431 14.0243 454.969 13.9271C455.767 14.743 457.222 13.5937 458.174 14.6041C459.406 14.0416 460.677 13.6666 462.083 13.75C463.431 13.8333 464.892 13.4514 466.111 13.8541C467.462 14.2986 468.806 14.3021 470.01 14.0729C471.059 13.875 472.076 13.7951 473.111 13.7882C473.809 13.7812 474.531 13.559 475.212 14.1319C475.486 14.3646 476.229 14.3437 476.58 14.1354C477.285 13.7118 477.847 13.6458 478.51 14.1562C478.635 14.2534 478.979 14.2569 479.094 14.1562C479.92 13.4548 480.882 13.7951 481.781 13.7847C484.892 13.743 488.003 13.7534 491.118 13.7812C491.75 13.7882 492.431 13.5451 493.021 14.1215C493.167 14.2604 493.747 14.0451 494.083 13.8923C494.632 13.6389 495.063 13.7569 495.444 14.1146C495.663 13.9687 495.872 13.8333 496.056 13.7118C496.347 13.8993 496.566 14.0347 496.608 14.0659C497.389 13.9514 498.014 13.7882 498.639 13.7812C501.344 13.7534 504.052 13.7673 506.844 13.7673C507.097 14.0903 507.382 14.4618 507.802 14.9965C507.802 15.3923 507.802 16.0555 507.802 16.8541C507.517 17.0694 507.142 17.3507 506.58 17.7743C505.451 17.566 503.962 18.2396 502.597 17.3923C501.306 17.5833 499.938 16.993 498.694 17.7743C498.549 17.8646 498.264 17.8611 498.101 17.7847C496.51 17.0243 494.823 17.5243 493.188 17.4062C492.757 17.375 492.319 17.316 491.865 17.6528C491.556 17.8854 490.896 17.934 490.528 17.7639C489.382 17.2326 488.201 17.4757 487.035 17.3785C486.538 17.3368 486.063 17.0625 485.569 17.0035C484.385 16.8576 483.316 17.4653 482.191 17.6146C481.028 17.7673 479.771 17.8889 478.674 17.5937C477.59 17.3021 476.569 17.5347 475.524 17.4097C475.017 18.066 474.288 17.7083 473.656 17.7951C472.5 17.9548 471.267 17.441 470.167 18.184C470.028 18.2778 469.736 18.2639 469.569 18.1875C467.774 17.368 465.878 18 464.045 17.7951C462.882 18.5035 461.594 18.1458 460.358 18.1771C459.733 18.1944 459.007 18.4826 458.476 17.8125C458.399 17.7153 458.045 17.7222 457.889 17.809C456.58 18.5486 455.156 18.0764 453.788 18.184C453.354 18.2187 452.917 18.2812 452.465 17.9305C452.174 17.7083 451.566 17.7604 451.139 17.8576C449.569 18.2257 449.597 18.1146 447.972 17.8854C446.521 17.6771 445.017 17.8125 443.535 17.7951C442.875 18.4618 442.031 18.184 441.264 18.1875C436.326 18.2083 431.385 18.2083 426.444 18.1875C425.823 18.184 425.205 18.0278 424.413 17.9166C423.962 18.243 423.319 18.3576 422.583 18.0451C422.01 17.7986 421.292 17.368 420.816 17.5312C420.115 17.7743 419.309 17.5347 418.792 17.8507C418.007 18.3264 417.229 18.2639 416.497 18.1597C415.264 17.9896 414.198 18.6805 413.003 18.6146C411.858 18.5521 410.701 18.6528 409.556 18.5833C408.795 18.5347 407.944 18.941 407.267 18.2118C407.177 18.1111 406.854 18.1389 406.681 18.2083C404.406 19.0903 402.049 18.4166 399.736 18.5729C399.059 18.618 398.292 18.0798 397.684 18.243C395.108 18.9271 392.503 18.4583 389.924 18.5833C389.438 18.6076 388.941 18.3889 388.299 18.2535C388.177 18.316 387.903 18.5729 387.618 18.5833C383.615 18.743 379.611 18.8784 375.608 18.993C375.188 19.0034 374.764 18.8403 374.118 18.7118C373.247 19.8368 372.163 18.3958 371.028 18.5451C369.965 18.684 368.771 18.9305 367.753 18.1979C366.99 18.6562 366.191 18.7778 365.344 18.4514C365.111 18.3611 364.865 18.2951 364.635 18.1944C363.868 17.8576 363.344 19 362.42 18.4514C361.816 18.0937 360.913 18.2222 360.271 18.1458C359.99 18.4236 359.847 18.566 359.688 18.7222C359.726 18.809 359.743 18.9653 359.806 18.9826C360.347 19.1423 361.024 19.1284 361.42 19.4548C362.035 19.9653 362.42 19.2778 362.951 19.3819C364.163 19.625 365.372 20.0034 366.635 19.809C367.226 20.4375 368 20.2118 368.701 20.1979C370.389 20.1701 371.556 20.8819 372.212 22.4305C372.33 22.7118 372.531 22.9583 372.722 23.2673C372.385 23.868 372.08 24.4132 371.757 24.9826C370.854 24.9826 369.993 24.9826 369.111 24.9826C368.337 24.493 367.535 23.9861 366.688 23.4514C365.844 23.3472 364.962 23.5208 364.052 23.0798C363.278 22.7014 362.201 23.3646 361.392 22.6354C361.319 22.5694 361.132 22.6389 360.993 22.625C359.628 22.4965 358.267 22.3055 356.899 22.2396C355.483 22.1736 354.056 22.2153 352.635 22.2291C350.854 22.243 349.118 21.5104 347.323 21.8298C342.729 22.6458 338.094 22.0173 333.479 22.2396C332.924 22.2673 332.378 22.5937 331.823 22.6076C330.837 22.6319 329.976 23.2361 328.941 23.0521C328.038 22.8923 327.229 23.7257 326.271 23.434C324.472 24.1111 322.597 23.7396 320.753 23.8437C320.441 23.8611 320.122 23.9375 319.819 24.0347C318.847 24.3507 317.847 24.5278 316.84 24.7222C315.802 24.9201 314.934 24.9305 313.903 24.6944C312.708 24.4236 311.503 25.2673 310.24 25.0764C309.795 25.7014 309.132 25.3715 308.566 25.4444C306.229 25.7534 303.955 24.9861 301.628 25.0173C301.024 25.0243 300.413 24.6979 299.736 24.5069C298.663 23.75 297.42 23.0312 296.378 22.0903C295.365 21.1736 294.556 20.0278 293.733 19.0729C291.819 19.0729 290.01 19.0729 288.09 19.0729C289.528 19.7604 290.865 20.3472 292.153 21.0382C292.639 21.2986 293.017 21.7708 293.41 22.1805C293.628 22.4062 293.736 22.7396 293.962 22.9514C294.771 23.7153 295.125 24.618 295.056 25.7361C294.993 26.7396 295.042 27.75 295.042 29.0382C294.274 29.8993 293.365 30.9201 292.726 31.6354C290.92 32.2847 289.424 32.3923 288.118 32.2847C286.736 31.4444 285.451 30.684 284.948 29.2847C284.628 28.3993 284.295 27.2951 284.569 26.4826C284.91 25.4618 284.983 24.1319 286.639 23.4861C286.795 23.4861 287.385 23.4861 287.99 23.4861C288.118 23.6146 288.26 23.7569 288.406 23.8993C288.986 24.9444 288.024 25.8715 288.149 26.8646C288.358 27.0729 288.549 27.2639 288.743 27.4583C289.552 27.4583 290.365 27.4583 291.226 27.4583C291.351 27.0625 291.472 26.6458 291.611 26.2361C292.108 24.7396 291.639 23.75 290.292 22.9201C288.917 22.0694 287.49 21.6111 285.875 21.8333C285.576 21.875 285.299 22.0625 284.941 22.2118C282.906 21.2361 280.785 22.1076 278.5 22.2986C278.354 22.7639 277.84 23.5729 278.056 23.875C278.517 24.5208 277.889 24.8923 277.969 25.4028C278.198 26.9375 277.708 28.2257 276.451 29.2048C276.333 29.2986 276.347 29.559 276.319 29.6632C275.559 30.1007 274.847 30.5139 273.993 31.0069C272.521 31.0069 270.83 31.1562 269.184 30.9514C268.24 30.8333 267.372 30.1389 266.104 29.5278C265.938 29.5278 265.347 29.5278 264.688 29.5278C264.247 30.368 263.899 31.3403 263.292 32.118C262.507 33.125 261.215 33.2916 260.028 33.4791C259.236 33.6007 258.406 33.4618 257.597 33.5104C256.094 33.6041 254.58 33.2778 253.073 33.8472C252.514 34.059 251.726 33.9965 250.979 33.6007C250.347 33.2708 249.399 33.5347 248.792 33.5347C248.056 33.0382 247.413 32.7048 246.896 32.2396C246.118 31.5416 245.767 30.5764 245.507 29.5972C245.333 28.9236 244.969 28.5833 244.451 28.6458C243.781 29.309 243.219 29.868 242.653 30.4271C242.59 30.3437 242.524 30.2604 242.458 30.1771C241.712 30.3472 240.972 30.5347 240.222 30.6771C239.403 30.8333 238.455 31.2604 237.781 31.0035C237 30.7048 236.25 30.8021 235.503 30.6354C234.51 29.618 233.462 28.7153 233.135 27.1632C232.972 26.375 232.983 25.618 232.938 24.8507C232.92 24.5798 233.264 24.3021 233.302 24.0104C233.365 23.4826 233.319 22.9444 233.319 22.3819C232.503 22.2361 231.694 22.0903 230.747 21.9201C229.302 22.7882 227.372 21.7118 225.569 22.6111C224.99 22.4479 224.233 21.6944 223.431 22.5659C222.667 22.3541 221.931 22.4653 221.059 22.8159C221.792 23.8472 222.007 25.1041 222.556 26.1666C223.337 27.6771 221.653 28.4896 221.927 29.6944C221.156 30.4618 220.438 31.1736 219.715 31.8889C218.774 31.8889 217.826 31.8889 216.819 31.8889C216.385 31.5139 215.701 31.1944 215.5 30.684C215.184 29.8785 214.264 29.9722 213.92 29.3541C213.618 28.809 213.382 28.2291 213.028 27.4791C213.167 26.8021 212.951 25.9236 213.215 24.9826C213.684 23.3159 214.757 22.2083 216.153 21.4583C217.358 20.8159 218.618 20.1632 220.094 20.184C220.559 20.191 221.031 19.8576 221.5 19.6805C221.253 19.1111 220.722 18.7639 220.264 19.0382C219.25 19.6389 218.181 19.4514 217.167 19.375C214.799 19.1944 213.056 19.8507 212.49 22.1284C211.528 22.7743 210.795 23.4375 209.934 23.8055C208.549 24.3993 207.208 25.2534 205.58 25.0451C203.17 25.8541 200.684 25.3229 198.236 25.4201C197.417 25.4548 196.594 25.125 195.764 25.059C194.889 24.993 194.007 25.0486 193.125 25.0382C193.01 25.0382 192.892 24.9548 192.778 24.9097C192.313 24.7187 191.865 24.4236 191.385 24.3715C190.976 24.3264 190.625 24.8819 190.076 24.3368C189.802 24.0625 189.052 24.2361 188.521 24.243C187.139 24.2673 185.84 23.6701 184.42 23.809C183.08 23.941 181.653 24.0903 180.382 23.7708C178.924 23.4028 177.503 23.5173 176.066 23.4236C175.76 23.4028 175.444 23.2882 175.174 23.1423C174.601 22.8368 174.174 23.0659 173.792 23.4097C173.281 23.2812 172.795 23.0555 172.306 23.0486C169.601 23.0139 166.868 22.816 164.194 23.1007C162.142 23.316 160.063 23.1666 158.073 23.5139C156.413 23.8021 154.788 23.7257 153.153 23.8507C152.594 23.8923 152.045 24.0972 151.49 24.2291C151.351 24.1007 151.205 23.9653 150.993 23.7708C149.875 24.8229 148.316 23.7291 147.08 24.5486C146.795 24.7361 146.295 24.6771 145.906 24.6319C143.299 24.3368 140.764 25.3784 138 24.9618C137.885 24.8576 137.646 24.6458 137.392 24.4166C137.521 24.1632 137.563 23.9132 137.698 23.8472C138.313 23.5486 138.934 23.1493 139.594 23.059C141.25 22.8403 142.83 22.2187 144.531 22.1909C145.118 22.1805 145.698 21.7708 146.347 21.5208C147.729 21.3437 149.219 21.1562 150.733 20.9653C150.903 20.7951 151.097 20.6076 151.288 20.4166C151.181 20.3472 151.073 20.2153 150.972 20.2222C147.424 20.5069 143.927 19.684 140.378 19.7569C139.236 19.7812 138.208 20.309 137.097 20.1979C136.337 20.118 135.469 20.5833 134.83 19.809C133.927 19.9653 133.035 19.8021 132.09 20.0278C130.854 20.3229 129.448 20.2257 128.177 19.9861C126.972 19.7604 125.778 19.6979 124.649 19.9444C124.16 20.0521 123.656 20.2014 123.149 20.2014C118.753 20.2187 114.354 20.2222 109.955 20.2014C109.399 20.1979 108.847 20.0278 108.295 19.809C108.229 19.809 108.128 19.7812 108.097 19.8125C107.809 20.118 107.479 20.2257 107.042 20.2222C102.712 20.2048 98.3785 20.2118 94.0486 20.2048C93.9306 20.2048 93.8056 20.1389 93.7014 20.0764C93.5938 20.0104 93.5069 19.9097 93.5799 19.9722C93.0104 20.0694 92.5799 20.2014 92.1528 20.2014C88.1597 20.2187 84.1667 20.1875 80.1736 20.2222C78.5313 20.2361 76.8542 21.0764 75.2882 20.5521C73.7465 20.0347 72.184 20.0208 70.7813 20.2986C68.5764 20.7326 66.4097 20.493 64.2326 20.5937C63.7431 20.618 63.2431 20.3923 62.9583 20.3298Z" fill="#FFFFF0"/>
</g>
</svg>
